<?xml version="1.0" standalone="no"?>
<!DOCTYPE svg PUBLIC "-//W3C//DTD SVG 20010904//EN"
 "http://www.w3.org/TR/2001/REC-SVG-20010904/DTD/svg10.dtd">
<svg version="1.0" xmlns="http://www.w3.org/2000/svg"
 width="4096.000000pt" height="4096.000000pt" viewBox="0 0 4096.000000 4096.000000"
 preserveAspectRatio="xMidYMid meet">
<metadata>
Created by potrace 1.14, written by Peter Selinger 2001-2017
</metadata>
<g transform="translate(0.000000,4096.000000) scale(0.100000,-0.100000)"
fill="#000000" stroke="none">
<path d="M13739 40136 c-2 -2 -33 -6 -69 -10 -120 -10 -294 -45 -430 -85 -813
-239 -1442 -872 -1676 -1685 -67 -232 -89 -397 -89 -666 0 -221 6 -290 40
-475 48 -264 160 -549 310 -797 177 -289 350 -474 690 -736 93 -72 400 -235
531 -282 l62 -22 0 -1065 0 -1066 1638 -1638 1639 -1639 1 -1052 c1 -579 2
-1056 3 -1060 0 -3 368 -6 816 -6 l815 -1 1 32 c0 18 1 647 1 1400 l1 1367
-1614 1614 c-888 888 -1625 1626 -1639 1641 l-25 27 0 721 0 722 92 37 c504
203 951 587 1215 1046 113 196 222 465 263 648 86 387 91 699 18 1069 -71 364
-248 740 -494 1050 -69 86 -275 296 -336 342 -21 15 -49 38 -63 51 -45 42
-273 189 -370 239 -242 126 -529 221 -759 253 -43 6 -88 13 -102 16 -26 7
-464 15 -470 10z m276 -1641 c315 -27 604 -266 695 -575 116 -394 -70 -806
-442 -980 -263 -123 -602 -88 -829 86 -154 118 -273 297 -308 464 -19 90 -21
106 -21 190 0 104 3 131 30 228 82 297 350 536 650 581 89 13 131 17 145 15 6
-2 42 -5 80 -9z"/>
<path d="M20289 40135 c-2 -2 -31 -6 -64 -9 -612 -58 -1218 -379 -1622 -861
-165 -196 -266 -361 -388 -630 -64 -141 -147 -438 -170 -610 -30 -229 -26
-521 10 -738 109 -650 473 -1225 1018 -1605 48 -34 99 -69 115 -77 15 -9 45
-27 67 -40 57 -35 283 -145 298 -145 7 0 17 -4 23 -9 5 -5 26 -14 47 -21 l37
-12 0 -3763 0 -3763 818 2 817 1 3 3761 2 3760 73 28 c167 65 403 193 542 295
385 282 669 644 848 1081 46 113 114 345 132 450 3 19 10 58 15 87 40 224 30
629 -21 851 -6 26 -13 58 -15 72 -10 51 -75 262 -104 335 -68 172 -153 332
-261 492 -221 326 -570 632 -926 811 -177 90 -422 177 -578 207 -44 8 -194 34
-240 41 -43 7 -471 15 -476 9z m414 -1663 c172 -52 314 -148 423 -287 48 -61
57 -76 90 -145 62 -129 84 -238 79 -385 -3 -110 -13 -163 -49 -257 -47 -125
-95 -199 -196 -299 -155 -154 -353 -233 -580 -232 -367 2 -678 244 -782 609
-31 111 -32 305 0 416 41 146 112 267 217 371 125 124 236 181 450 231 51 12
282 -3 348 -22z"/>
<path d="M26849 40136 c-2 -2 -40 -6 -83 -10 -44 -4 -82 -9 -86 -11 -3 -2 -28
-6 -55 -9 -162 -19 -448 -110 -652 -208 -94 -44 -299 -163 -321 -185 -8 -7
-23 -18 -35 -25 -74 -39 -331 -271 -443 -399 -111 -127 -257 -346 -338 -507
-109 -217 -212 -540 -232 -731 -2 -25 -6 -55 -9 -66 -22 -106 -23 -485 -1
-602 2 -10 7 -40 10 -68 19 -146 100 -434 158 -564 97 -218 190 -379 315 -544
98 -129 339 -371 463 -464 184 -137 424 -272 600 -338 l75 -28 -1 -716 c-1
-394 -2 -721 -3 -727 -1 -6 -737 -747 -1636 -1647 -1225 -1224 -1635 -1641
-1636 -1658 -1 -31 -1 -2739 0 -2760 1 -16 66 -17 816 -17 622 -1 815 2 816
11 1 7 2 483 3 1060 l2 1048 1638 1638 1638 1638 1 1063 2 1063 132 57 c306
132 558 302 788 534 187 188 333 386 443 604 108 212 198 466 227 642 3 19 10
60 15 90 33 191 35 594 5 745 -3 11 -7 37 -10 57 -8 62 -52 238 -81 328 -15
47 -28 87 -29 90 -1 3 -8 21 -17 41 -9 20 -19 47 -23 60 -11 35 -127 264 -166
329 -78 126 -192 281 -275 370 -101 109 -124 131 -215 211 -121 105 -123 107
-244 188 -296 200 -627 333 -960 386 -55 9 -111 18 -125 21 -29 7 -465 16
-471 10z m416 -1668 c288 -85 495 -309 572 -617 14 -57 12 -276 -3 -341 -73
-313 -300 -545 -608 -622 -187 -46 -389 -22 -565 68 -163 85 -282 205 -361
367 -154 316 -89 702 160 942 140 137 306 214 495 231 33 3 61 7 62 8 8 8 191
-18 248 -36z"/>
<path d="M3997 36864 c-1 -1 -55 -5 -121 -9 -65 -4 -126 -8 -135 -10 -9 -1
-43 -6 -75 -10 -98 -11 -252 -41 -386 -74 -295 -75 -651 -226 -887 -377 -29
-19 -55 -34 -58 -34 -4 0 -109 -73 -184 -127 -151 -110 -365 -305 -501 -458
-349 -392 -596 -856 -724 -1357 -25 -95 -47 -189 -50 -208 -3 -19 -12 -78 -20
-130 -8 -52 -18 -117 -22 -145 -4 -27 -9 -4431 -11 -9785 l-3 -9735 2047
-2045 2046 -2045 1 -4748 1 -4747 5325 2 5325 3 0 7539 0 7540 -3076 3075
c-1692 1692 -3103 3101 -3135 3132 -257 242 -606 463 -959 604 -159 64 -412
139 -535 160 -19 3 -42 8 -50 10 -8 3 -31 7 -50 9 -19 3 -69 10 -110 16 -60 9
-191 20 -266 23 -9 0 -12 1350 -12 5396 0 2968 -3 5434 -6 5481 -7 85 -32 293
-41 340 -3 14 -7 37 -10 52 -6 32 -34 157 -40 178 -2 8 -13 49 -23 90 -31 119
-104 320 -158 437 -13 29 -36 79 -50 111 -180 391 -534 832 -904 1128 -580
464 -1267 707 -2028 718 -62 1 -114 1 -115 0z m283 -1649 c41 -4 77 -8 80 -10
3 -2 23 -6 45 -9 93 -15 289 -77 370 -118 117 -59 147 -75 222 -125 380 -248
647 -663 717 -1116 3 -21 9 -59 12 -85 4 -26 7 -2555 8 -5620 l1 -5573 -85
-51 c-386 -231 -671 -489 -957 -868 -130 -172 -298 -481 -389 -715 -60 -156
-134 -413 -150 -525 -3 -19 -7 -42 -9 -50 -10 -35 -29 -184 -41 -319 -12 -139
-8 -411 11 -576 4 -40 18 -141 21 -160 2 -11 6 -33 9 -50 59 -349 216 -763
405 -1070 204 -332 167 -292 2113 -2239 l1768 -1770 580 580 579 579 -1758
1760 c-1331 1332 -1772 1780 -1815 1841 -130 185 -237 442 -263 632 -69 503
71 942 411 1288 236 241 514 384 850 437 89 14 334 16 420 2 267 -41 499 -139
720 -304 33 -24 1345 -1329 2916 -2899 l2855 -2854 0 -6384 c0 -3511 -2 -6384
-5 -6385 -8 -1 -7331 -1 -7352 0 -14 1 -15 414 -15 4266 l0 4265 -2042 2043
c-1123 1123 -2045 2045 -2048 2049 -9 10 -9 18526 0 18647 4 52 9 98 11 101 2
4 7 28 10 54 9 63 55 224 90 311 150 374 437 683 800 860 184 90 384 147 566
161 46 4 85 8 87 9 5 4 172 -3 252 -10z"/>
<path d="M36777 36864 c-1 -1 -54 -4 -117 -8 -63 -3 -126 -8 -140 -10 -14 -2
-50 -7 -80 -10 -30 -4 -80 -11 -110 -16 -30 -5 -71 -12 -90 -15 -19 -3 -43 -8
-52 -11 -17 -5 -46 -12 -88 -20 -124 -25 -363 -106 -550 -187 -646 -279 -1217
-801 -1557 -1422 -155 -282 -287 -639 -337 -911 -3 -16 -10 -54 -16 -84 -6
-30 -12 -64 -14 -75 -2 -11 -7 -49 -11 -85 -4 -36 -9 -73 -10 -82 -14 -73 -17
-854 -17 -5599 0 -2957 -3 -5381 -7 -5386 -3 -6 -51 -13 -106 -17 -55 -4 -116
-9 -135 -11 -215 -31 -403 -74 -581 -131 -407 -131 -795 -353 -1107 -632 -48
-44 -1475 -1467 -3172 -3164 l-3085 -3085 0 -7539 0 -7539 5325 -3 5325 -2 -1
4742 -1 4743 2049 2050 2048 2050 -3 9745 c-1 5360 -5 9754 -9 9766 -3 12 -9
45 -13 75 -31 267 -112 575 -220 840 -216 528 -600 1027 -1049 1362 -50 38
-98 74 -106 80 -24 20 -252 162 -290 182 -286 147 -429 206 -660 275 -94 28
-157 44 -215 56 -11 2 -31 6 -45 9 -49 12 -246 43 -300 49 -121 12 -445 27
-453 20z m273 -1649 c606 -70 1126 -477 1348 -1055 28 -72 69 -223 77 -280 4
-24 8 -47 10 -50 16 -25 18 -1283 19 -9473 l1 -9269 -2050 -2051 -2050 -2052
0 -4262 1 -4263 -25 -1 c-152 -4 -7330 -1 -7338 4 -6 4 -9 2230 -9 6385 l1
6380 2860 2859 c2248 2247 2879 2873 2948 2922 79 57 263 157 342 188 76 29
156 52 225 67 41 8 89 18 105 21 17 4 98 8 180 10 137 3 177 0 300 -20 91 -15
267 -67 293 -88 6 -5 12 -7 12 -3 0 11 208 -101 274 -147 285 -200 491 -484
591 -816 59 -198 77 -485 40 -661 -3 -14 -8 -38 -11 -55 -36 -201 -139 -429
-282 -620 -25 -33 -832 -848 -1793 -1810 l-1749 -1750 579 -579 580 -580 1748
1750 c961 962 1766 1770 1788 1794 23 25 68 79 100 120 33 41 63 77 66 80 17
13 164 237 218 332 166 289 298 641 355 948 9 47 18 95 20 107 3 12 7 49 11
82 3 33 7 68 9 78 17 88 24 439 11 572 -4 38 -8 89 -10 112 -2 24 -8 73 -14
109 -6 36 -13 83 -17 105 -3 22 -7 45 -8 50 -2 6 -8 37 -15 70 -103 490 -356
988 -703 1389 -90 103 -278 284 -388 373 -96 77 -263 197 -300 216 -8 4 -51
29 -95 55 l-80 48 1 5544 c0 3050 3 5581 7 5625 35 432 237 823 572 1108 101
86 91 79 172 131 212 137 488 233 723 252 41 3 76 7 77 8 5 5 219 -2 273 -9z"/>
<path d="M13109 29443 c-4 -358 1 -4856 6 -4861 9 -10 14726 -9 14732 1 4 6 7
4733 4 4885 l-1 22 -818 0 -817 0 0 -1622 c0 -893 -1 -1630 -3 -1638 -3 -14
-618 -15 -5730 -16 -3150 0 -5729 3 -5732 7 -3 4 -5 741 -5 1638 l1 1631 -818
0 -818 0 -1 -47z"/>
</g>
</svg>
